<?xml version="1.0" standalone="no"?>
<!DOCTYPE svg PUBLIC "-//W3C//DTD SVG 20010904//EN"
 "http://www.w3.org/TR/2001/REC-SVG-20010904/DTD/svg10.dtd">
<svg version="1.0" xmlns="http://www.w3.org/2000/svg"
 width="111.000000pt" height="828.000000pt" viewBox="0 0 111.000000 828.000000"
 preserveAspectRatio="xMidYMid meet">
<metadata>
Created by potrace 1.10, written by Peter Selinger 2001-2011
</metadata>
<g transform="translate(0.000000,828.000000) scale(0.100000,-0.100000)"
fill="#000000" stroke="none">
<path d="M322 8078 c-9 -9 -12 -684 -12 -2975 l0 -2964 -40 -53 c-22 -29 -40
-56 -40 -60 0 -4 -14 -37 -32 -74 -30 -63 -32 -73 -32 -187 -1 -119 4 -144 44
-217 6 -10 10 -27 10 -38 0 -11 17 -39 38 -63 21 -23 42 -50 45 -60 4 -10 7
-298 8 -639 0 -383 4 -629 10 -640 9 -16 26 -18 197 -18 133 0 192 4 200 12 9
9 12 167 12 648 l0 636 64 57 c77 68 127 159 146 265 11 61 11 79 -4 139 -9
37 -27 88 -38 113 -25 53 -127 156 -182 185 l-38 20 4 2944 c4 2844 4 2945
-14 2963 -16 16 -36 18 -176 18 -110 0 -162 -4 -170 -12z m340 -6008 c46 -20
138 -97 138 -115 0 -4 6 -16 13 -24 7 -9 21 -40 31 -69 37 -108 2 -244 -85
-331 -233 -233 -628 -25 -569 300 6 38 18 73 26 80 8 6 14 17 14 23 0 17 89
101 135 127 22 12 56 26 75 30 58 13 171 3 222 -21z"/>
</g>
</svg>
