<?xml version="1.0" standalone="no"?>
<!DOCTYPE svg PUBLIC "-//W3C//DTD SVG 20010904//EN"
 "http://www.w3.org/TR/2001/REC-SVG-20010904/DTD/svg10.dtd">
<svg version="1.0" xmlns="http://www.w3.org/2000/svg"
 width="96.000000pt" height="900.000000pt" viewBox="0 0 96.000000 900.000000"
 preserveAspectRatio="xMidYMid meet">
<metadata>
Created by potrace 1.10, written by Peter Selinger 2001-2011
</metadata>
<g transform="translate(0.000000,900.000000) scale(0.100000,-0.100000)"
fill="#000000" stroke="none">
<path d="M344 8725 c-15 -23 -16 -307 -13 -3528 l4 -3503 -43 -43 c-69 -70
-92 -125 -92 -221 0 -96 26 -159 93 -221 l42 -38 3 -523 c2 -354 6 -526 14
-535 14 -18 269 -18 286 -1 9 9 12 141 12 533 l0 521 44 43 c24 23 53 63 66
88 31 63 38 164 15 232 -21 63 -101 155 -150 171 -21 7 -35 18 -35 28 -4 151
3 2808 10 4047 5 902 10 1934 11 2294 1 618 0 656 -17 668 -12 9 -53 13 -126
13 -103 0 -108 -1 -124 -25z m254 -7091 c104 -52 157 -177 119 -281 -22 -59
-80 -118 -142 -141 -68 -26 -89 -27 -152 -6 -106 36 -163 114 -163 223 0 136
95 227 241 230 30 1 62 -8 97 -25z"/>
</g>
</svg>
