<?xml version="1.0" standalone="no"?>
<!DOCTYPE svg PUBLIC "-//W3C//DTD SVG 20010904//EN"
 "http://www.w3.org/TR/2001/REC-SVG-20010904/DTD/svg10.dtd">
<svg version="1.0" xmlns="http://www.w3.org/2000/svg"
 width="255.000000pt" height="1350.000000pt" viewBox="0 0 255.000000 1350.000000"
 preserveAspectRatio="xMidYMid meet">
<metadata>
Created by potrace 1.10, written by Peter Selinger 2001-2011
</metadata>
<g transform="translate(0.000000,1350.000000) scale(0.100000,-0.100000)"
fill="#000000" stroke="none">
<path d="M1230 13075 c-11 -13 -12 -349 -6 -1753 4 -955 8 -1888 11 -2072 2
-184 7 -1703 11 -3375 8 -3209 9 -3068 -37 -4585 -5 -190 -12 -428 -15 -530
-4 -131 -10 -199 -22 -232 l-15 -47 28 -37 c70 -92 158 -184 175 -184 20 0
190 221 190 248 0 8 -8 24 -17 34 -25 28 -31 181 -43 1058 -10 816 -23 1573
-41 2405 -6 275 -14 831 -19 1235 -5 404 -14 877 -19 1050 -6 173 -11 466 -11
650 0 184 -5 502 -10 705 -6 204 -14 700 -19 1102 -6 403 -13 739 -18 745 -4
7 -11 306 -15 663 -4 358 -11 830 -17 1050 -6 220 -11 560 -12 755 -3 509 -18
1081 -29 1108 -11 26 -32 29 -50 7z"/>
</g>
</svg>
